HIERARCHY
ROOT root
{
	OFFSET	0	13.1	24.9
	CHANNELS 6  Xposition Yposition Zposition Xrotation Yrotation Zrotation
	JOINT spine_1
	{
		OFFSET	0	9.99999	0
		CHANNELS 3  Xrotation Yrotation Zrotation
		JOINT spine_2
		{
			OFFSET	0	112	-10
			CHANNELS 3  Xrotation Yrotation Zrotation
			JOINT spine_3
			{
				OFFSET	0	206.5	19.3
				CHANNELS 3  Xrotation Yrotation Zrotation
				JOINT spine_4
				{
					OFFSET	0	110.4	14.6
					CHANNELS 3  Xrotation Yrotation Zrotation
					JOINT neck_1
					{
						OFFSET	0	71.8	-50.3
						CHANNELS 3  Xrotation Yrotation Zrotation
						JOINT neck_2
						{
							OFFSET	0	86.2	-25.8
							CHANNELS 3  Xrotation Yrotation Zrotation
							JOINT head_ee
							{
								OFFSET	0	179.8	-8.7
								CHANNELS 3  Xrotation Yrotation Zrotation
								End Site
								{
									OFFSET	1	0	0
								}
							}
						}
					}
					JOINT left_clavicle
					{
						OFFSET	-43.2	22.4	-70.8
						CHANNELS 3  Xrotation Yrotation Zrotation
						JOINT left_shoulder
						{
							OFFSET	-93.9	-5.79999	48.7
							CHANNELS 3  Xrotation Yrotation Zrotation
							JOINT left_elbow
							{
								OFFSET	-291.4	-30.8	15.2
								CHANNELS 3  Xrotation Yrotation Zrotation
								JOINT left_lowarm_twist
								{
									OFFSET	-110.7	-3.89999	13.6
									CHANNELS 3  Xrotation Yrotation Zrotation
									JOINT left_hand
									{
										OFFSET	-110.7	-3.89999	13.6
										CHANNELS 3  Xrotation Yrotation Zrotation
										JOINT left_ee
										{
											OFFSET	-80.8	-5.10001	12.1
											CHANNELS 3  Xrotation Yrotation Zrotation
											End Site
											{
												OFFSET	1	0	0
											}
										}
									}
								}
							}
						}
					}
					JOINT right_clavicle
					{
						OFFSET	43.2	22.4	-70.8
						CHANNELS 3  Xrotation Yrotation Zrotation
						JOINT right_shoulder
						{
							OFFSET	93.9	-5.79999	48.7
							CHANNELS 3  Xrotation Yrotation Zrotation
							JOINT right_elbow
							{
								OFFSET	291.4	-30.8	15.2
								CHANNELS 3  Xrotation Yrotation Zrotation
								JOINT right_lowarm_twist
								{
									OFFSET	110.7	-3.89999	13.6
									CHANNELS 3  Xrotation Yrotation Zrotation
									JOINT right_hand
									{
										OFFSET	110.7	-3.89999	13.6
										CHANNELS 3  Xrotation Yrotation Zrotation
										JOINT right_ee
										{
											OFFSET	80.8	-5.10001	12.1
											CHANNELS 3  Xrotation Yrotation Zrotation
											End Site
											{
												OFFSET	1	0	0
											}
										}
									}
								}
							}
						}
					}
				}
			}
		}
	}
	JOINT left_hip
	{
		OFFSET	-82.8	-127.5	0.300001
		CHANNELS 3  Xrotation Yrotation Zrotation
		JOINT left_knee
		{
			OFFSET	-28.2	-396.7	2.2
			CHANNELS 3  Xrotation Yrotation Zrotation
			JOINT left_ankle
			{
				OFFSET	-11.7	-411.3	35.4
				CHANNELS 3  Xrotation Yrotation Zrotation
				JOINT left_toes
				{
					OFFSET	0	-60	-88.6
					CHANNELS 3  Xrotation Yrotation Zrotation
					JOINT left_foot_ee
					{
						OFFSET	-22.5	-16.5	-42.2
						CHANNELS 3  Xrotation Yrotation Zrotation
						End Site
						{
							OFFSET	1	0	0
						}
					}
				}
			}
		}
	}
	JOINT right_hip
	{
		OFFSET	82.8	-127.5	0.300001
		CHANNELS 3  Xrotation Yrotation Zrotation
		JOINT right_knee
		{
			OFFSET	28.2	-396.7	2.2
			CHANNELS 3  Xrotation Yrotation Zrotation
			JOINT right_ankle
			{
				OFFSET	11.7	-411.3	35.4
				CHANNELS 3  Xrotation Yrotation Zrotation
				JOINT right_toes
				{
					OFFSET	0	-60	-88.6
					CHANNELS 3  Xrotation Yrotation Zrotation
					JOINT right_foot_ee
					{
						OFFSET	22.5	-16.5	-42.2
						CHANNELS 3  Xrotation Yrotation Zrotation
						End Site
						{
							OFFSET	1	0	0
						}
					}
				}
			}
		}
	}
}
MOTION
Frames: 10
Frame Time: 0.02
1372.05 701.618 -1475.22 -17.0232693171 37.5101410566 13.712843887 2.09625 -0.243287 -2.35021 2.09931 -0.0932863 -2.36092 2.10294 0.319467 -2.34108 2.0953 -0.0541645 -2.36214 0.767071 7.08183 6.48393 0.887822 7.17638 7.71023 -0.0 0.0 -0.0 2.87302 6.69752 5.96023 1.83658 -26.1255 67.0432 2.73271 -53.5365 1.37869 61.6236 -1.92059 -7.25565 -0.414852 21.3009 6.10827 -0.0 0.0 -0.0 4.81073 -1.71532 -9.34958 -27.5042 36.1119 -59.6525 0.262418 7.40676 -0.0169854 1.96927 -0.0652105 0.243055 3.98629 -20.8443 -34.231 0.0 0.0 0.0 1.10849 6.25157 -2.71179 -25.2609 0.196223 3.84025 37.8826 14.14 -4.72636 -25.3555 0.0 0.0 -0.0 0.0 -0.0 49.7795 3.1888 -5.15521 -22.4434 -0.258618 -3.41243 -10.1571 -4.2507 -1.51914 -2.78623 0.0 0.0 0.0 0.0 0.0 
1372.05 701.618 -1475.22 -16.9865898965 37.3534515709 13.6524977501 2.09625 -0.243287 -2.35021 2.09931 -0.0932863 -2.36092 2.10294 0.319467 -2.34108 2.0953 -0.0541645 -2.36214 0.767071 7.08183 6.48393 0.887822 7.17638 7.71023 -0.0 0.0 -0.0 2.87302 6.69752 5.96023 1.83658 -26.1255 67.0432 2.73271 -53.5365 1.37869 61.6236 -1.92059 -7.25565 -0.414852 21.3009 6.10827 -0.0 0.0 -0.0 4.81073 -1.71532 -9.34958 -27.5042 36.1119 -59.6525 0.262418 7.40676 -0.0169854 1.96927 -0.0652105 0.243055 3.98629 -20.8443 -34.231 0.0 0.0 0.0 1.10849 6.25157 -2.71179 -25.2609 0.196223 3.84025 37.8826 14.14 -4.72636 -25.3555 0.0 0.0 -0.0 0.0 -0.0 49.7795 3.1888 -5.15521 -22.4434 -0.258618 -3.41243 -10.1571 -4.2507 -1.51914 -2.78623 0.0 0.0 0.0 0.0 0.0 
1364.63293129 698.255 -1498.96284287 -17.3546580738 38.7373802115 13.6410115885 1.72319 -0.289015 -2.38972 1.72636 -0.13641 -2.40326 1.7322 0.299819 -2.38839 1.72425 -0.0810324 -2.40576 1.16894 9.2938 6.79821 1.33491 10.7643 8.24394 -0.0 0.0 -0.0 1.78077 5.87334 3.92777 1.643 -26.7647 68.0432 2.71864 -53.3952 1.36738 65.7973 -2.31633 -7.6159 -0.117147 19.8838 7.32523 -0.0 0.0 -0.0 4.64087 -1.15111 -9.00414 -25.8406 37.2085 -61.1129 0.309525 8.71743 -0.0235923 1.50262 -0.0505146 0.185262 4.10773 -26.2813 -35.9963 0.0 0.0 0.0 2.55228 6.05523 -4.38983 -29.5517 0.0609761 4.48472 38.1423 16.7337 -4.78936 -24.7471 0.0 0.0 -0.0 0.0 -0.0 50.6641 1.96494 -4.28527 -25.1192 -0.199862 -3.81882 -9.27682 -1.17184 -1.3936 -3.17568 0.0 0.0 0.0 0.0 0.0 
1364.85651604 698.255 -1499.03153679 -17.2273703359 38.2229607006 13.4364512803 1.72319 -0.289015 -2.38972 1.72636 -0.13641 -2.40326 1.7322 0.299819 -2.38839 1.72425 -0.0810324 -2.40576 1.16894 9.2938 6.79821 1.33491 10.7643 8.24394 -0.0 0.0 -0.0 1.78077 5.87334 3.92777 1.643 -26.7647 68.0432 2.71864 -53.3952 1.36738 65.7973 -2.31633 -7.6159 -0.117147 19.8838 7.32523 -0.0 0.0 -0.0 4.64087 -1.15111 -9.00414 -25.8406 37.2085 -61.1129 0.309525 8.71743 -0.0235923 1.50262 -0.0505146 0.185262 4.10773 -26.2813 -35.9963 0.0 0.0 0.0 2.55228 6.05523 -4.38983 -29.5517 0.0609761 4.48472 38.1423 16.7337 -4.78936 -24.7471 0.0 0.0 -0.0 0.0 -0.0 50.6641 1.96494 -4.28527 -25.1192 -0.199862 -3.81882 -9.27682 -1.17184 -1.3936 -3.17568 0.0 0.0 0.0 0.0 0.0 
1347.40404368 704.333 -1519.95587533 -15.8198009652 38.4070931054 12.1781077226 1.24638 -0.173399 -2.38321 1.24954 -0.0214414 -2.38941 1.25086 0.430262 -2.35047 1.24315 0.0537591 -2.3889 3.87975 11.7233 5.65036 4.1387 15.4407 7.04414 -0.0 0.0 -0.0 1.67888 5.76782 3.73408 0.425333 -22.417 70.1497 2.76536 -53.861 1.405 64.2327 -2.1649 -7.48422 -0.835534 17.3118 1.94451 -0.0 0.0 -0.0 5.06729 -1.36324 -9.83253 -25.7851 37.7587 -60.0335 0.305425 8.60371 -0.0229751 -1.41347 0.0519423 -0.173024 3.81351 -30.8034 -34.3936 0.0 0.0 0.0 4.01484 6.36435 -5.76207 -34.955 -0.177387 5.27927 34.765 24.5144 -4.6234 -23.4427 0.0 0.0 -0.0 0.0 -0.0 46.0137 6.08875 -5.7743 -20.0469 -0.295079 -3.04654 -3.58261 -7.75939 -0.528463 -7.69459 0.0 0.0 0.0 0.0 0.0 
1348.12026347 704.333 -1520.34304747 -15.6266510702 37.5279338498 11.8641621214 1.24638 -0.173399 -2.38321 1.24954 -0.0214414 -2.38941 1.25086 0.430262 -2.35047 1.24315 0.0537591 -2.3889 3.87975 11.7233 5.65036 4.1387 15.4407 7.04414 -0.0 0.0 -0.0 1.67888 5.76782 3.73408 0.425333 -22.417 70.1497 2.76536 -53.861 1.405 64.2327 -2.1649 -7.48422 -0.835534 17.3118 1.94451 -0.0 0.0 -0.0 5.06729 -1.36324 -9.83253 -25.7851 37.7587 -60.0335 0.305425 8.60371 -0.0229751 -1.41347 0.0519423 -0.173024 3.81351 -30.8034 -34.3936 0.0 0.0 0.0 4.01484 6.36435 -5.76207 -34.955 -0.177387 5.27927 34.765 24.5144 -4.6234 -23.4427 0.0 0.0 -0.0 0.0 -0.0 46.0137 6.08875 -5.7743 -20.0469 -0.295079 -3.04654 -3.58261 -7.75939 -0.528463 -7.69459 0.0 0.0 0.0 0.0 0.0 
1317.95749211 716.43 -1569.90655427 -15.2725819238 39.057431814 11.1314217326 0.912091 -0.122051 -1.77242 0.913839 -0.00903758 -1.7766 0.914502 0.336867 -1.7444 0.91026 0.0571891 -1.7757 7.07192 11.865 5.20267 7.35935 15.3601 6.41693 -0.0 0.0 -0.0 2.01236 5.65385 4.33128 -6.0565 -24.7415 68.1319 2.65032 -52.6952 1.31279 55.612 -1.39921 -6.68872 -1.033 12.6937 -1.2843 -0.0 0.0 -0.0 5.74615 -0.650042 -11.1323 -21.5279 39.7911 -60.3373 0.37448 10.5095 -0.0344412 -1.55046 0.0572029 -0.189725 3.93405 -30.8436 -35.2126 0.0 0.0 0.0 16.6141 8.61305 -12.5053 -56.2894 -1.81291 8.10411 31.5764 26.9963 -4.34162 -22.7548 0.0 0.0 -0.0 0.0 -0.0 39.4864 3.96928 -4.69722 -17.449 -0.317283 -2.64857 14.416 3.52619 2.05421 -23.015 0.0 0.0 0.0 0.0 0.0 
1307.94472153 723.495 -1587.4844136 -14.7489204169 37.8162172658 10.8240738449 0.800042 -0.157251 -1.58773 0.801443 -0.055914 -1.59451 0.803378 0.258472 -1.57442 0.799918 0.00661033 -1.59548 8.79253 10.5941 2.68127 9.0975 15.1539 3.33738 -0.0 0.0 -0.0 2.17091 5.83986 4.63355 -7.07875 -19.5027 68.8911 2.38266 -49.7199 1.10409 50.8155 -1.02781 -6.1995 -1.93159 10.9909 -7.78136 -0.0 0.0 -0.0 6.00519 -4.27838 -11.6649 -18.4551 39.4637 -59.92 0.345999 9.72605 -0.0294378 -1.53648 0.0566643 -0.188021 3.59881 -29.7367 -32.8552 0.0 0.0 0.0 21.0708 6.41841 -12.7614 -64.9105 -2.7529 9.04332 32.1346 27.0195 -4.40588 -22.0364 0.0 0.0 -0.0 0.0 -0.0 37.5536 4.56739 -6.01013 -15.1432 -0.321862 -2.29486 22.0769 -3.02506 2.99175 -28.1783 0.0 0.0 0.0 0.0 0.0 
1289.26358106 724.629 -1619.85527618 -15.1286007988 38.6314988901 12.1626829634 0.873893 -0.12747 -1.3312 0.874878 -0.0425121 -1.33661 0.876115 0.21925 -1.31919 0.873686 0.00817628 -1.33726 7.94957 10.5955 0.273389 8.39317 17.4824 0.492357 -0.0 0.0 -0.0 1.51101 9.22863 3.72395 -10.0532 -21.5423 68.0943 2.10616 -46.2091 0.898635 45.8242 -0.68634 -5.65964 -1.75903 9.66522 -7.30189 -0.0 0.0 -0.0 6.88941 -2.20695 -13.3663 -18.2314 42.2372 -59.1117 0.330794 9.30629 -0.0269239 -4.40324 0.175801 -0.534549 3.26282 -29.3347 -30.599 0.0 0.0 0.0 27.5126 3.91088 -14.7662 -69.6706 -3.32957 9.4988 24.062 28.3547 -3.46356 -23.8845 0.0 0.0 -0.0 0.0 -0.0 33.9309 6.58751 -8.50019 -11.3598 -0.29854 -1.71493 32.2152 -0.647528 4.13743 -32.9121 0.0 0.0 0.0 0.0 0.0 
1279.10480562 728.685 -1631.16913801 -16.1617287708 39.6185025513 12.6101339489 1.05816 -0.0564055 -1.13719 1.05888 0.0160666 -1.13848 1.05868 0.234473 -1.11419 1.05696 0.0555768 -1.13723 6.95819 10.3576 0.512359 7.34869 17.0287 0.863781 -0.0 0.0 -0.0 1.84016 8.56957 4.24704 -10.3073 -22.434 68.1171 1.77879 -41.3814 0.671863 44.3888 -0.597002 -5.49914 -2.07894 11.034 -8.70887 -0.0 0.0 -0.0 6.74637 -2.21931 -13.0884 -16.6668 43.2688 -59.7043 0.369755 10.3798 -0.0335847 -4.09855 0.162316 -0.498004 3.34538 -29.7789 -31.1933 0.0 0.0 0.0 30.734 4.67449 -13.9317 -69.8937 -3.35751 9.51896 22.5329 28.4654 -3.26767 -24.6033 0.0 0.0 -0.0 0.0 -0.0 33.0645 8.24707 -7.73916 -10.1604 -0.283159 -1.53155 33.7528 1.29026 4.3077 -34.5187 0.0 0.0 0.0 0.0 0.0 
